<svg xmlns="http://www.w3.org/2000/svg" width="2508.233" height="253.026" viewBox="0 0 2508.233 253.026">
  <defs>
    <style>
      .cls-1 {
        fill: #3490c5;
      }

      .cls-2, .cls-5 {
        fill: #fff;
      }

      .cls-2 {
        stroke: #fff;
      }

      .cls-3 {
        fill: #322e2e;
        font-size: 89px;
        font-family: Consolas-Bold, Consolas;
        font-weight: 700;
        letter-spacing: 0.1em;
      }

      .cls-4, .cls-5 {
        stroke: none;
      }
    </style>
  </defs>
  <g id="구성_요소_4_2" data-name="구성 요소 4 – 2" transform="translate(0.5 0.526)">
    <g id="패스_6" data-name="패스 6" class="cls-1">
      <path class="cls-4" d="M 2507.233642578125 251.5 L 0.5001367330551147 251.5 L 0.5001367330551147 0.5 L 2507.233642578125 0.5 L 2507.233642578125 131.8046875 L 2507.233642578125 251.5 Z"/>
      <path class="cls-5" d="M 0.999755859375 1 L 0.999755859375 251 L 2506.733154296875 251 L 2506.733154296875 131.8046875 L 2506.733154296875 1 L 0.999755859375 1 M -0.000244140625 0 L 2507.733154296875 0 C 2507.733154296875 0 2507.733154296875 68.8046875 2507.733154296875 131.8046875 C 2507.733154296875 194.8046875 2507.733154296875 252 2507.733154296875 252 L -0.000244140625 252 L -0.000244140625 0 Z"/>
    </g>
    <path id="패스_2" data-name="패스 2" class="cls-2" d="M1225.151,144s-78.544-24.964-132.458-35.087c-46.421-8.716-144.651,3.26-146.51-58.219C942.15-82.667,441-108,441-108V144Z" transform="translate(-441 108)"/>
    <g id="그룹_1" data-name="그룹 1" transform="translate(-50 -263)">
      <text id="Hamp" class="cls-3" transform="translate(126 419)"><tspan x="0" y="0">Hamp</tspan></text>
    </g>
  </g>
</svg>
