<?xml version="1.0" encoding="utf-8"?>
<!-- Generator: Adobe Illustrator 23.0.1, SVG Export Plug-In . SVG Version: 6.00 Build 0)  -->
<svg version="1.1" id="Calque_1" xmlns="http://www.w3.org/2000/svg" xmlns:xlink="http://www.w3.org/1999/xlink" x="0px" y="0px"
	 width="432px" height="432px" viewBox="0 0 432 432" style="enable-background:new 0 0 432 432;" xml:space="preserve">
<style type="text/css">
	.st0{fill:#A1848D;}
	.st1{fill:#333333;}
	.st2{fill:#506D65;}
	.st3{fill:#6A8962;}
	.st4{fill:#D6A96E;}
	.st5{fill:#71AA76;}
	.st6{fill:#EAC250;}
	.st7{fill:#8E8DAC;}
	.st8{fill:#DA7756;}
	.st9{fill:#D49580;}
	.st10{fill:#A291B2;}
	.st11{fill:#D39E29;}
	.st12{fill:#BE914C;}
	.st13{fill:#BE684C;}
	.st14{fill:#B6C8A3;}
	.st15{fill:#F6C6C4;}
	.st16{fill:#9BAD3F;}
	.st17{fill:#65C8D0;}
	.st18{fill:#D2B2B1;}
	.st19{fill:#9790AC;}
	.st20{fill:#526679;}
	.st21{fill:#2F618D;}
	.st22{fill:#E0A351;}
	.st23{fill:#495B23;}
	.st24{fill:#BC4952;}
	.st25{fill:#C1272D;}
	.st26{fill:#1A1A1A;}
	.st27{fill:#FBB03B;}
	.st28{fill:#009245;}
	.st29{fill:#F8AF3C;}
	.st30{fill:#A3B348;}
	.st31{fill:#EB6183;}
	.st32{fill:#B78494;}
	.st33{fill:#9EAE87;}
	.st34{fill:#838BC5;}
	.st35{fill:#BA9BC9;}
	.st36{fill:#DDCA3E;}
	.st37{fill:#DC9E4D;}
	.st38{fill:#548D8E;}
	.st39{fill:#534741;}
	.st40{fill:#C7B299;}
	.st41{fill-rule:evenodd;clip-rule:evenodd;fill:#C19246;}
	.st42{fill:#E6AD60;}
	.st43{fill:#C99685;}
</style>
<g>
	<path class="st0" d="M175.843,126.58c0,0.57,0,0.986,0,1.249c0,0.263,0.076,0.504,0.23,0.723c0.153,0.219,0.34,0.416,0.559,0.592
		c0.218,0.175,0.46,0.34,0.723,0.493c0.263,0.153,0.515,0.274,0.756,0.362c0.921,0.395,1.852,0.509,2.795,0.345
		c0.942-0.164,1.764-0.586,2.466-1.266c0.701-0.679,1.233-1.583,1.595-2.712c0.362-1.128,0.421-2.46,0.181-3.994
		c-0.065-0.482-0.175-0.964-0.329-1.446c-0.153-0.482-0.351-0.921-0.592-1.315c-0.241-0.395-0.537-0.734-0.887-1.019
		c-0.351-0.284-0.768-0.471-1.249-0.559c-0.833-0.153-1.622-0.142-2.367,0.033c-0.746,0.176-1.403,0.45-1.973,0.822
		c-0.57,0.373-1.031,0.811-1.381,1.315c-0.351,0.504-0.537,1.019-0.559,1.545c0,0.241,0,0.646,0,1.216
		c0,0.57,0.005,1.173,0.016,1.808C175.838,125.407,175.843,126.01,175.843,126.58z"/>
	<path class="st0" d="M199.859,124.13c0.077-0.033,0.169-0.071,0.279-0.115c0.087-1.249-0.137-2.383-0.674-3.403
		c-0.537-1.019-1.277-1.868-2.219-2.548c-0.329-0.241-0.614-0.328-0.855-0.263c-0.241,0.066-0.482,0.263-0.723,0.592
		c-0.57,0.811-0.953,1.732-1.151,2.762c-0.197,1.031-0.285,2.049-0.263,3.057c0.066,0.044,0.109,0.071,0.131,0.082
		c0.022,0.011,0.175,0.016,0.46,0.016s0.784-0.011,1.496-0.033c0.712-0.022,1.792-0.054,3.238-0.098
		C199.688,124.18,199.781,124.163,199.859,124.13z"/>
	<path class="st0" d="M306.779,302.696c-0.331-0.496-0.682-0.978-1.032-1.46c-2.269-3.124-4.564-6.23-6.793-9.382
		c-0.594-0.84-1.288-1.429-2.261-1.72c-1.261-0.378-2.52-0.766-3.775-1.163c-0.328-0.104-0.641-0.254-0.961-0.383
		c0.397-0.113,0.739-0.078,1.082-0.06c0.909,0.046,1.818,0.12,2.727,0.117c0.886-0.003,1.238-0.632,0.821-1.399
		c-0.134-0.246-0.313-0.47-0.486-0.693c-1.52-1.959-3.054-3.907-4.558-5.878c-0.519-0.681-1.154-1.137-1.978-1.347
		c-0.456-0.117-0.909-0.243-1.36-0.374c-0.406-0.118-0.807-0.248-1.248-0.385c0.085-0.089,0.102-0.123,0.12-0.123
		c0.5-0.007,1.001-0.01,1.501-0.015c1.098-0.012,1.539-0.598,1.23-1.652c-0.07-0.24-0.177-0.47-0.278-0.699
		c-0.924-2.08-2.293-3.813-4.101-5.189c-0.674-0.513-1.41-0.944-2.077-1.465c-1.855-1.447-3.696-2.913-5.525-4.392
		c-0.32-0.259-0.635-0.563-0.855-1.104c0.356,0.17,0.574,0.274,0.793,0.378c1.729,0.819,3.459,1.635,5.186,2.457
		c0.449,0.214,0.889,0.346,1.308-0.045c0.347-0.324,0.375-0.695,0.067-1.294c-1.168-2.271-2.665-4.239-4.926-5.557
		c-1.215-0.709-2.362-1.535-3.54-2.308c0.019-0.077,0.037-0.154,0.056-0.231c0.272,0,0.544,0.005,0.816-0.001
		c0.451-0.01,0.792-0.192,0.924-0.65c0.122-0.42-0.078-0.731-0.38-0.988c-0.142-0.121-0.306-0.22-0.465-0.32
		c-0.558-0.35-1.144-0.662-1.674-1.051c-1.439-1.057-2.866-2.133-4.272-3.233c-0.328-0.257-0.557-0.639-0.915-1.062
		c1.173-0.084,2.124-0.331,2.922-1.01c1.316-1.119,1.799-2.686,2.303-4.239c0.105-0.325-0.013-0.644-0.355-0.78
		c-0.335-0.134-0.611,0.009-0.811,0.299c-0.071,0.103-0.127,0.218-0.202,0.318c-0.774,1.028-1.544,2.059-2.33,3.078
		c-0.269,0.348-0.575,0.718-1.079,0.639c-0.665-0.104-1.32-0.268-2.151-0.442c0.429-0.404,0.713-0.687,1.014-0.951
		c0.637-0.559,1.295-1.095,1.924-1.663c1.308-1.179,2.104-2.651,2.348-4.391c0.072-0.514,0.03-1.068-0.085-1.575
		c-0.053-0.233-0.389-0.508-0.636-0.554c-0.173-0.032-0.482,0.252-0.606,0.466c-0.25,0.431-0.427,0.907-0.613,1.372
		c-0.471,1.18-1.443,1.737-2.595,2.16c0-0.148-0.012-0.242,0.002-0.331c0.204-1.355-0.24-2.606-0.626-3.865
		c-0.092-0.299-0.293-0.494-0.632-0.428c-0.357,0.069-0.394,0.362-0.396,0.654c-0.002,0.156,0.032,0.312,0.041,0.469
		c0.053,0.877,0.128,1.753,0.149,2.631c0.031,1.323-0.469,2.456-1.378,3.397c-0.225,0.233-0.552,0.465-0.858,0.505
		c-0.147,0.019-0.265,0.03-0.399,0.046c-0.007-1.017-0.012-2.035-0.018-3.052c-0.029-4.8-0.059-9.6-0.082-14.399
		c-0.001-0.231,0.062-0.462,0.105-0.76c0.775,0.336,1.288,0.155,1.612-0.549c0.073-0.158,0.267-0.257,0.399-0.391
		c0.457-0.463,0.668-0.998,0.577-1.618c6.869-4.999,12.754-11.004,17.461-18.13c6.043-9.148,10.528-19.035,13.768-29.507
		c2.232-7.21,3.497-14.578,3.903-22.101c0.277-5.122,0.082-10.232-0.574-15.322c-0.643-4.992-1.642-9.9-3.288-14.671
		c-3.807-11.032-9.682-20.869-17.172-29.767c-4.46-5.298-9.592-9.839-15.544-13.424c-1.559-0.939-3.067-1.962-4.607-2.932
		c-9.765-6.154-20.233-10.537-31.631-12.599c-3.277-0.593-6.571-1.016-9.882-1.364c-4.952-0.52-9.898-0.627-14.849-0.075
		c-5.664,0.631-11.196,1.886-16.612,3.642c-6.506,2.11-12.632,5.066-18.535,8.493c-4.263,2.475-8.519,4.976-12.378,8.064
		c-9.265,7.414-16.71,16.336-22.291,26.834c-4.034,7.588-6.766,15.589-8.07,24.069c-0.611,3.97-1.091,7.96-1.561,11.95
		c-0.497,4.212-0.821,8.435-0.583,12.686c0.214,3.829,0.54,7.648,1.342,11.398c2.345,10.963,6.395,21.234,12.402,30.742
		c3.524,5.577,7.657,10.584,12.443,15.021c-0.064,0.088-0.129,0.177-0.168,0.27c-0.323,0.766,0.783,1.194,0.514,1.999
		c-0.04,0.12,0.255,0.427,0.456,0.533c0.266,0.141,0.591,0.171,0.892,0.249c0.094,1.173,0.643,1.442,1.65,0.795
		c0.184-0.118,0.351-0.263,0.516-0.408c0.017-0.015,0.037-0.034,0.054-0.049c0.309,0.248,0.631,0.475,0.944,0.717
		c0.045,0.675,0.084,1.307,0.096,1.934c0.075,4.046,0.124,8.093,0.186,12.14c0.022,1.458,0.025,2.918,0.091,4.374
		c-0.387-0.23-0.774-0.447-1.172-0.63c-1.346-0.616-2.708-1.163-3.78-2.233c-0.265-0.265-0.616-0.338-0.955-0.148
		c-0.35,0.196-0.401,0.536-0.328,0.904c0.39,1.956,1.282,3.528,3.25,4.296c0.43,0.168,0.837,0.398,1.401,0.671
		c-0.576,0.253-0.999,0.44-1.422,0.625c-0.342,0.15-0.596,0.392-0.57,0.781c0.028,0.424,0.319,0.697,0.719,0.762
		c0.396,0.064,0.808,0.057,1.211,0.042c0.278-0.01,0.553-0.087,0.83-0.134c-0.414,0.491-0.853,0.896-1.343,1.225
		c-1.667,1.119-3.319,2.268-5.041,3.298c-1.647,0.985-2.641,2.378-3.041,4.217c-0.38,1.746-0.732,3.499-1.08,5.252
		c-0.305,1.539-0.589,3.082-0.876,4.624c-0.101,0.546-0.104,1.087,0.414,1.443c0.548,0.377,1.025,0.05,1.474-0.236
		c0.369-0.235,0.717-0.509,1.053-0.791c0.794-0.665,1.575-1.347,2.363-2.019c0.156-0.133,0.324-0.251,0.486-0.376
		c0.031,0.204-0.024,0.336-0.105,0.449c-0.639,0.894-1.255,1.806-1.931,2.671c-0.955,1.22-1.558,2.573-1.705,4.115
		c-0.116,1.217-0.272,2.437-0.282,3.657c-0.009,1.13,0.829,1.638,1.865,1.196c0.544-0.232,1.034-0.587,1.555-0.875
		c0.161-0.089,0.342-0.142,0.515-0.212c-0.129,0.393-0.318,0.679-0.527,0.95c-0.615,0.795-1.241,1.581-1.855,2.375
		c-1.075,1.39-1.634,2.96-1.586,4.724c0.039,1.443,0.105,2.886,0.162,4.328c0.16,4.022,0.596,8.011,1.4,11.957
		c0.088,0.429,0.169,0.867,0.324,1.274c0.405,1.059,1.317,1.244,2.021,0.364c0.545-0.682,0.961-1.467,1.431-2.209
		c0.173-0.272,0.334-0.552,0.501-0.828c-0.168,1.48-0.511,2.876-0.803,4.282c-0.332,1.6-0.592,3.202-0.338,4.855
		c0.353,2.305,1.271,4.392,2.372,6.41c1.04,1.907,2.258,3.701,3.704,5.324c0.898,1.008,1.752,0.903,2.388-0.274
		c0.356-0.66,0.621-1.37,0.91-2.065c0.626-1.506,1.13-3.074,1.884-4.512c1.524-2.909,2.68-5.943,3.528-9.106
		c0.193-0.719,0.439-1.423,0.63-2.034c0.513,0.057,0.952,0.221,1.323,0.124c0.789-0.205,1.371-1.306,1.189-2.106
		c-0.09-0.396-0.231-0.783-0.379-1.162c-0.775-1.987-1.561-3.97-2.34-5.956c-0.095-0.242-0.168-0.492-0.252-0.738
		c0.537,0.761,0.927,1.579,1.328,2.393c0.194,0.394,0.393,0.787,0.617,1.163c0.189,0.318,0.476,0.507,0.867,0.422
		c0.398-0.087,0.551-0.386,0.587-0.757c0.058-0.594,0.136-1.188,0.151-1.783c0.046-1.785,0.26-3.571-0.083-5.354
		c-0.445-2.307-1.395-4.418-2.447-6.494c-0.164-0.323-0.321-0.649-0.481-0.974c0.336,0.151,0.523,0.385,0.696,0.628
		c0.455,0.639,0.899,1.286,1.358,1.923c0.287,0.398,0.638,0.712,1.179,0.611c0.602-0.112,0.764-0.601,0.86-1.108
		c0.058-0.306,0.06-0.623,0.08-0.936c0.15-2.402-0.223-4.768-0.608-7.118c-0.482-2.939-1.057-5.859-2.14-8.664
		c-0.573-1.485-0.99-3.045-1.32-4.605c-0.323-1.531-0.48-3.101-0.646-4.66c-0.113-1.06-0.534-1.85-1.534-2.291
		c-0.2-0.088-0.381-0.222-0.571-0.335c0.338,0.009,0.615,0.138,0.902,0.238c0.809,0.281,1.37-0.054,1.503-0.886
		c0.213-1.326-0.702-3.024-1.927-3.581c-0.192-0.088-0.379-0.188-0.684-0.341c0.796-0.062,1.423-0.094,2.046-0.166
		c0.404-0.047,0.737-0.256,0.756-0.704c0.017-0.388-0.242-0.587-0.596-0.746c-1.081-0.485-2.142-1.013-3.233-1.534
		c0.243-0.425,0.495-0.851,0.735-1.284c0.638-1.153,0.739-2.385,0.499-3.655c-0.094-0.5-0.229-1.009-0.83-1.137
		c-0.411-0.087-0.703,0.219-0.976,0.954c-0.109,0.294-0.183,0.612-0.348,0.871c-0.268,0.417-0.544,0.859-0.915,1.175
		c-0.642,0.546-1.359,1.002-1.969,1.442c-0.036-0.021-0.068-0.043-0.104-0.064c-0.001-0.017,0.004-0.034,0.003-0.051
		c-0.042-1.002-0.137-2.003-0.151-3.005c-0.055-3.953-0.053-7.906-0.138-11.858c-0.024-1.093-0.072-2.185-0.121-3.277
		c3.419,2.464,7.026,4.64,10.689,6.735c5.092,2.914,10.389,5.289,15.945,7.023c-0.093,0.335-0.079,0.677,0.212,1.018
		c0.452,0.529,1.01,0.373,1.39,0.224c0.603,0.253,1.072,0.451,1.717,0.722c0.023,0.286,0.074,0.689,0.085,1.093
		c0.067,2.385,0.129,4.77,0.185,7.156c0.136,5.744,0.278,11.488,0.399,17.232c0.026,1.211,0.038,2.422,0.049,3.634
		c-0.751-0.66-1.269-1.508-1.567-2.56c-0.196-0.694-0.413-1.382-0.647-2.064c-0.128-0.374-0.361-0.682-0.818-0.642
		c-0.407,0.035-0.621,0.343-0.676,0.689c-0.102,0.645-0.212,1.308-0.172,1.953c0.075,1.199,0.637,2.213,1.409,3.121
		c0.287,0.338,0.526,0.716,0.813,1.112c-2.133,0.611-3.786,0.679-5.689,0.243c-0.371-0.085-0.703-0.097-0.9,0.272
		c-0.192,0.36-0.043,0.693,0.24,0.925c0.336,0.275,0.691,0.562,1.086,0.725c0.604,0.249,1.245,0.421,1.881,0.577
		c0.464,0.114,0.947,0.148,1.515,0.232c-0.178,0.159-0.26,0.25-0.358,0.318c-3.368,2.326-6.404,5.056-9.476,7.744
		c-1.32,1.156-2.394,2.493-2.916,4.198c-0.533,1.738-1.055,3.481-1.525,5.237c-0.193,0.721-0.306,1.48-0.332,2.226
		c-0.042,1.191,0.659,1.811,1.85,1.657c0.647-0.084,1.292-0.263,1.911-0.477c1.511-0.524,3.005-1.094,4.508-1.643
		c0.286-0.104,0.577-0.193,1.057-0.353c-0.225,0.265-0.307,0.386-0.411,0.482c-2.146,1.989-4.376,3.883-6.89,5.385
		c-1.687,1.008-2.85,2.388-3.748,4.101c-1.486,2.834-3.059,5.623-4.594,8.432c-0.165,0.302-0.342,0.602-0.473,0.919
		c-0.378,0.912-0.033,1.642,0.938,1.846c0.51,0.108,1.055,0.063,1.585,0.063c0.314,0,0.628-0.047,0.942-0.073
		c0.017,0.063,0.035,0.126,0.053,0.189c-0.714,0.552-1.42,1.116-2.145,1.653c-0.908,0.673-1.837,1.316-2.746,1.987
		c-0.843,0.622-1.381,1.456-1.575,2.487c-0.11,0.585-0.213,1.18-0.225,1.773c-0.048,2.354-0.093,4.71-0.071,7.064
		c0.014,1.474,0.104,2.95,0.244,4.418c0.158,1.656,1.073,2.02,2.43,1.026c0.127-0.093,0.253-0.187,0.371-0.29
		c1.208-1.05,2.414-2.102,3.623-3.152c0.994-0.863,1.985-1.729,2.988-2.582c0.258-0.22,0.552-0.397,0.922-0.659
		c-0.04,0.76-0.306,1.324-0.573,1.876c-0.574,1.186-1.185,2.354-1.766,3.536c-1.243,2.525-2.214,5.156-2.373,7.98
		c-0.121,2.157,0.012,4.328,0.046,6.493c0.003,0.212,0.076,0.436,0.166,0.631c0.244,0.528,0.767,0.692,1.243,0.364
		c0.252-0.174,0.475-0.417,0.65-0.671c0.517-0.748,1.018-1.508,1.499-2.28c0.961-1.546,1.901-3.104,2.857-4.653
		c0.114-0.185,0.278-0.338,0.419-0.506c0.059,0.182,0.039,0.303-0.002,0.415c-1.002,2.705-1.994,5.414-3.018,8.11
		c-0.389,1.026-0.849,2.025-1.287,3.032c-0.369,0.848-0.397,1.712-0.09,2.57c0.189,0.529,0.428,1.045,0.697,1.539
		c0.984,1.808,2.252,3.401,3.765,4.794c0.692,0.637,1.401,1.262,2.144,1.838c0.791,0.613,1.345,0.579,2.106-0.089
		c0.447-0.392,0.862-0.827,1.254-1.274c0.641-0.732,1.287-1.464,1.87-2.242c1.147-1.532,2.26-3.091,3.373-4.648
		c0.969-1.355,1.172-2.871,0.931-4.489c-0.243-1.626-0.697-3.183-1.366-4.683c-0.831-1.862-1.651-3.729-2.469-5.598
		c-0.146-0.334-0.255-0.683-0.449-1.211c0.282,0.188,0.431,0.243,0.513,0.349c0.69,0.891,1.397,1.77,2.039,2.695
		c0.41,0.59,0.692,1.267,1.074,1.879c0.608,0.971,1.332,1.027,1.991,0.085c0.517-0.739,0.956-1.551,1.316-2.38
		c1.278-2.947,2.031-6.065,2.827-9.163c0.167-0.651,0.165-1.378,0.092-2.053c-0.303-2.797-1.068-5.483-2.208-8.048
		c-1.07-2.407-2.235-4.773-3.357-7.157c-0.136-0.289-0.262-0.582-0.393-0.873c0.067-0.039,0.134-0.078,0.201-0.117
		c0.653,0.871,1.387,1.694,1.94,2.624c1.009,1.697,1.908,3.46,2.861,5.191c0.211,0.383,0.41,0.788,0.694,1.114
		c0.497,0.569,1.187,0.481,1.552-0.176c0.149-0.269,0.252-0.581,0.303-0.885c0.166-0.99,0.346-1.981,0.434-2.979
		c0.302-3.44,0.513-6.888,0.866-10.322c0.2-1.951-0.173-3.711-1.362-5.233c-0.962-1.232-2.042-2.378-3.133-3.5
		c-0.72-0.74-1.554-1.369-2.331-2.054c-0.137-0.121-0.246-0.275-0.367-0.414c0.311,0.039,0.532,0.154,0.722,0.306
		c1.493,1.197,2.985,2.397,4.467,3.607c0.437,0.357,0.829,0.769,1.265,1.128c0.765,0.628,1.363,0.488,1.788-0.415
		c0.146-0.311,0.253-0.642,0.356-0.97c0.787-2.5,1.141-5.075,1.337-7.68c0.06-0.79-0.087-1.509-0.534-2.144
		c-0.668-0.948-1.374-1.869-2.07-2.798c-0.252-0.337-0.521-0.661-0.783-0.992c0.043-0.052,0.086-0.103,0.129-0.155
		c0.549,0.335,1.097,0.674,1.649,1.004c0.47,0.281,0.902,0.777,1.526,0.386c0.637-0.398,0.49-1.052,0.414-1.624
		c-0.178-1.337-0.305-2.696-0.655-3.991c-0.613-2.268-1.377-4.495-2.079-6.739c-0.119-0.382-0.243-0.762-0.381-1.194
		c0.32-0.123,0.57-0.263,0.838-0.314c1.669-0.32,2.87-1.339,3.939-2.575c0.24-0.278,0.463-0.544,0.234-0.912
		c-0.217-0.349-0.56-0.354-0.919-0.259c-0.515,0.137-1.03,0.276-1.547,0.405c-0.497,0.123-0.997,0.235-1.601,0.375
		c0.085-0.272,0.104-0.397,0.16-0.503c0.38-0.72,0.763-1.437,1.153-2.151c0.316-0.58,0.297-1.025-0.068-1.261
		c-0.343-0.223-0.682-0.092-1.085,0.438c-0.456,0.6-0.892,1.215-1.354,1.809c-0.36,0.464-0.747,0.907-1.118,1.354
		c-0.557-0.349-1.036-0.717-1.535-0.998c-0.046-2.713-0.089-5.426-0.146-8.138c-0.143-6.812-0.293-13.624-0.455-20.435
		c-0.015-0.649,0.047-1.225,0.527-1.724c0.082-0.086,0.148-0.19,0.215-0.293c6.219,1.369,12.483,2.341,19.172,2.61
		c0.068,0.475,0.361,0.772,0.845,0.895c0.809,0.205,0.82,0.205,0.848,1.011c0.038,1.098,0.058,2.196,0.085,3.294
		c0.091,3.765,0.125,7.532,0.289,11.294c0.157,3.6,0.433,7.195,0.67,10.792c-0.828-0.709-1.543-1.53-2.09-2.525
		c-0.21-0.382-0.496-0.668-0.978-0.56c-0.467,0.104-0.653,0.481-0.713,0.898c-0.053,0.369-0.052,0.751-0.027,1.125
		c0.029,0.434,0.11,0.864,0.177,1.358c-0.947-0.353-1.654-0.949-2.3-1.633c-0.323-0.342-0.6-0.744-0.971-1.019
		c-0.208-0.154-0.59-0.189-0.853-0.122c-0.346,0.088-0.433,0.451-0.355,0.777c0.219,0.912,0.367,1.86,0.729,2.715
		c0.757,1.791,2.006,3.149,4.132,3.835c-0.371,0.292-0.625,0.468-0.852,0.674c-1.266,1.15-2.286,2.499-3.171,3.955
		c-0.049,0.08-0.131,0.162-0.134,0.245c-0.009,0.235-0.074,0.563,0.05,0.684c0.162,0.16,0.534,0.283,0.729,0.205
		c1.131-0.452,2.324-0.794,3.263-1.635c0.137-0.123,0.311-0.205,0.468-0.305c-0.012,0.235-0.079,0.375-0.163,0.504
		c-1.154,1.776-2.534,3.365-4.139,4.735c-1.169,0.998-1.725,2.194-1.654,3.713c0.076,1.631,0.164,3.261,0.195,4.893
		c0.041,2.198,0.016,4.397,0.049,6.595c0.026,1.718,0.939,2.269,2.468,1.456c0.77-0.41,1.502-0.918,2.18-1.469
		c1.096-0.89,2.132-1.854,3.2-2.779c0.137-0.118,0.312-0.192,0.633-0.385c-1.63,3.008-3.597,5.483-5.86,7.727
		c-0.559,0.555-0.941,1.17-1.051,1.946c-0.07,0.496-0.154,0.995-0.168,1.495c-0.054,1.883-0.091,3.767-0.113,5.651
		c-0.004,0.372,0.041,0.756,0.138,1.114c0.28,1.031,1.136,1.474,2.111,1.026c0.56-0.257,1.083-0.64,1.548-1.051
		c1.107-0.976,2.168-2.003,3.251-3.006c0.217-0.201,0.45-0.384,0.676-0.576c-0.093,0.405-0.26,0.739-0.502,1.004
		c-1.015,1.11-2.027,2.226-3.093,3.287c-0.621,0.618-1.333,1.146-2.018,1.697c-0.984,0.792-1.553,1.801-1.625,3.065
		c-0.056,0.971-0.124,1.945-0.098,2.916c0.072,2.646-0.084,5.272-0.53,7.881c-0.047,0.276-0.068,0.566-0.038,0.843
		c0.114,1.071,0.925,1.63,1.94,1.266c0.612-0.219,1.183-0.572,1.739-0.918c0.574-0.357,1.108-0.779,1.66-1.172
		c0.023,0.172-0.031,0.267-0.105,0.343c-0.831,0.855-1.679,1.695-2.492,2.568c-0.294,0.315-0.565,0.681-0.741,1.071
		c-0.245,0.543,0.015,1.103,0.586,1.275c0.31,0.093,0.676,0.063,1.006,0.014c0.532-0.079,1.054-0.22,1.581-0.335
		c-0.421,0.754-0.928,1.341-1.431,1.933c-0.528,0.622-1.066,1.236-1.572,1.877c-0.348,0.441-0.509,0.961-0.249,1.499
		c0.276,0.571,0.817,0.819,1.404,0.767c0.647-0.056,1.319-0.168,1.911-0.419c1.066-0.453,2.08-1.028,3.115-1.552
		c0.295-0.15,0.59-0.301,0.884-0.451c-0.002,0.39-0.112,0.667-0.238,0.936c-0.872,1.862-1.975,3.57-3.415,5.046
		c-0.986,1.011-1.271,2.179-0.916,3.55c0.672,2.59,1.798,4.948,3.472,7.039c3.122,3.897,7.146,6.446,11.873,7.944
		c1.415,0.448,2.012,0.232,2.627-1.145c0.498-1.114,0.875-2.283,1.304-3.428c0.128-0.341,0.252-0.683,0.377-1.025
		c0.045,0.012,0.09,0.024,0.135,0.036c-0.031,0.339-0.055,0.678-0.094,1.016c-0.119,1.029-0.256,2.056-0.362,3.086
		c-0.093,0.905,0.092,1.755,0.644,2.495c1.041,1.396,2.287,2.591,3.709,3.587c0.96,0.672,1.723,0.622,2.543-0.199
		c0.661-0.662,1.325-1.367,1.795-2.166c1.877-3.193,3.677-6.431,5.149-9.838c1.435-3.321,2.376-6.811,3.518-10.233
		c0.438-1.313,0.259-2.468-0.52-3.563c-0.4-0.562-0.796-1.135-1.258-1.645c-1.243-1.372-2.522-2.712-3.784-4.067
		c-0.126-0.135-0.232-0.289-0.347-0.435c0.462,0.165,0.832,0.399,1.205,0.63c0.48,0.297,0.949,0.618,1.446,0.883
		c1.118,0.595,1.978,0.23,2.288-1.001c0.129-0.51,0.185-1.06,0.154-1.586c-0.098-1.69-0.286-3.375-0.373-5.065
		c-0.085-1.653-0.759-3.034-1.83-4.237c-1.064-1.194-2.177-2.346-3.267-3.517c-0.157-0.168-0.311-0.339-0.589-0.643
		c0.298,0.07,0.419,0.081,0.525,0.126c0.693,0.295,1.371,0.626,2.075,0.889c1.009,0.377,1.693-0.173,1.552-1.244
		c-0.057-0.432-0.189-0.857-0.318-1.276c-0.869-2.833-2.126-5.497-3.529-8.1c-1.146-2.127-2.314-4.247-3.366-6.421
		c-1.693-3.498-3.652-6.804-6.397-9.594c-0.134-0.136-0.215-0.325-0.409-0.625c0.628,0.077,1.096,0.112,1.554,0.196
		c0.74,0.136,1.472,0.315,2.212,0.455c0.393,0.074,0.757-0.016,1.01-0.355c0.276-0.369,0.273-0.778,0.033-1.147
		c-0.256-0.392-0.544-0.77-0.864-1.112c-2.021-2.16-4.453-3.76-7.06-5.112c-0.947-0.491-1.919-0.934-2.874-1.409
		c-0.203-0.101-0.385-0.247-0.697-0.451c1.108-0.139,2.041-0.147,2.965,0.079c0.438,0.107,0.812,0.042,1.097-0.324
		c0.297-0.381,0.207-0.779-0.017-1.144c-0.459-0.748-0.952-1.476-1.413-2.223c-0.804-1.305-2.04-1.78-3.494-1.874
		c-0.598-0.039-1.192-0.13-1.788-0.198c0.201-0.219,0.401-0.298,0.608-0.347c0.427-0.1,0.864-0.164,1.287-0.277
		c1.033-0.276,1.269-1.133,0.531-1.921c-0.17-0.182-0.378-0.33-0.572-0.487c-1.048-0.848-2.281-1.295-3.553-1.672
		c-0.333-0.099-0.741-0.091-0.99-0.482c0.196-0.109,0.356-0.206,0.523-0.288c2.248-1.107,3.203-3.079,3.61-5.411
		c0.073-0.416,0.06-0.848-0.359-1.088c-0.443-0.253-0.763,0.034-1.073,0.325c-0.869,0.817-1.763,1.607-2.616,2.441
		c-0.595,0.582-1.277,0.992-1.986,1.281c-0.437-0.348-0.824-0.7-1.241-0.991c-0.17-2.879-0.346-5.758-0.492-8.639
		c-0.186-3.665-0.354-7.332-0.48-11c-0.083-2.415-0.081-4.833-0.112-7.249c-0.003-0.267,0.032-0.534,0.06-0.968
		c0.237,0.256,0.346,0.389,0.469,0.506c0.511,0.486,1.035,0.404,1.371-0.228c0.102-0.191,0.173-0.407,0.219-0.619
		c0.033-0.153,0.06-0.308,0.094-0.461c1.246-0.034,2.622-0.076,4.011-0.173c5.292-0.371,10.56-0.971,15.799-1.817
		c2.573-0.415,5.12-0.926,7.604-1.659c0.076,0.18,0.163,0.358,0.281,0.527c0.127,0.182,0.105,0.481,0.116,0.728
		c0.065,1.473,0.122,2.946,0.177,4.419c0.198,5.303,0.39,10.606,0.594,15.908c-0.196-0.107-0.394-0.21-0.585-0.326
		c-1.231-0.749-2.445-1.526-3.659-2.303c-0.298-0.19-0.622-0.268-0.852-0.007c-0.157,0.179-0.186,0.493-0.213,0.752
		c-0.015,0.14,0.094,0.294,0.15,0.44c0.463,1.215,0.85,2.466,1.798,3.482c-0.174,0.032-0.244,0.069-0.289,0.049
		c-0.257-0.115-0.509-0.241-0.761-0.367c-0.224-0.112-0.436-0.259-0.671-0.336c-0.345-0.114-0.692-0.114-0.908,0.258
		c-0.182,0.315-0.076,0.76,0.285,0.987c0.288,0.181,0.625,0.286,0.943,0.417c0.584,0.24,1.197,0.423,1.847,0.849
		c-1.719,0.613-2.342,1.894-2.522,3.454c-0.309,2.681-0.608,5.364-0.872,8.051c-0.057,0.584-0.023,1.201,0.1,1.774
		c0.192,0.892,0.926,1.292,1.784,0.996c0.465-0.16,0.932-0.399,1.309-0.71c0.821-0.679,1.587-1.426,2.373-2.147
		c0.223-0.205,0.439-0.417,0.658-0.625c-0.001,0.284-0.076,0.518-0.212,0.708c-0.907,1.278-1.729,2.634-2.768,3.796
		c-1.331,1.487-1.845,3.146-1.744,5.092c0.192,3.68,0.743,7.304,1.629,10.877c0.119,0.481,0.302,0.964,0.548,1.394
		c0.461,0.805,1.226,1.033,2.004,0.546c0.548-0.344,1.062-0.795,1.472-1.296c0.933-1.142,1.79-2.344,2.681-3.52
		c0.125-0.166,0.267-0.319,0.4-0.478c-0.073,0.474-0.25,0.874-0.443,1.266c-1.035,2.094-2.356,4.009-3.829,5.807
		c-1.129,1.378-1.547,2.897-1.387,4.64c0.196,2.142,0.754,4.197,1.443,6.221c1.234,3.627,2.31,7.298,3.162,11.034
		c0.153,0.671,0.328,1.348,0.592,1.981c0.525,1.255,1.684,1.612,2.867,0.932c0.243-0.14,0.46-0.326,0.69-0.49
		c0.151-0.108,0.305-0.213,0.457-0.319c-0.118,0.497-0.332,0.874-0.571,1.235c-0.451,0.681-0.963,1.325-1.359,2.036
		c-0.284,0.509-0.553,1.089-0.599,1.656c-0.228,2.815-0.382,5.637-0.556,8.457c-0.015,0.249-0.013,0.506,0.029,0.751
		c0.165,0.97,0.897,1.334,1.721,0.815c0.39-0.246,0.729-0.594,1.042-0.94c1.77-1.957,3.058-4.206,3.99-6.667
		c0.318-0.839,0.643-1.676,0.965-2.514c0.127,0.346,0.104,0.668,0.08,0.991c-0.029,0.404,0.067,0.738,0.456,0.951
		c0.408,0.224,0.728,0.045,1.033-0.195c0.195-0.154,0.383-0.324,0.546-0.511c1.583-1.82,2.751-3.887,3.628-6.127
		c0.561-1.432,0.633-2.865,0.1-4.322c-0.126-0.343-0.202-0.704-0.307-1.079c1.149,0.051,1.428-0.127,1.7-1.213
		c0.411-1.643,0.813-3.291,1.141-4.952c0.274-1.384,0.529-2.791,0.324-4.208c-0.216-1.488-0.482-2.97-0.791-4.441
		c-0.217-1.034-0.543-2.044-0.855-3.191c1.369,0.37,1.935-0.042,1.951-1.315c0.006-0.499-0.043-1.005-0.121-1.499
		c-0.463-2.967-1.4-5.791-2.648-8.512c-0.824-1.797-1.707-3.567-2.556-5.352c-2.077-4.364-4.671-8.386-7.915-11.979
		c-0.174-0.193-0.327-0.406-0.626-0.782c0.531,0.191,0.843,0.331,1.169,0.414c0.788,0.2,1.379-0.291,1.34-1.102
		c-0.009-0.185-0.067-0.369-0.114-0.551c-0.221-0.85-0.72-1.529-1.351-2.114c-0.825-0.764-1.667-1.508-2.511-2.269
		c0.074-0.102,0.116-0.185,0.18-0.245c0.972-0.915,1.425-2.033,1.374-3.372c-0.028-0.721,0.011-1.444,0.018-2.166
		c0.002-0.22,0.007-0.44-0.008-0.659c-0.028-0.403-0.18-0.742-0.597-0.869c-0.411-0.126-0.737,0.039-0.985,0.371
		c-0.244,0.327-0.481,0.66-0.722,0.988c-0.695,0.944-1.524,1.748-2.493,2.411c-0.246,0.168-0.47,0.248-0.723,0.19
		c-0.108-3.169-0.216-6.339-0.331-9.508c-0.109-3.009-0.246-6.018-0.34-9.027c-0.041-1.314-0.007-2.63-0.007-3.863
		c0.445-0.425,0.801-0.954,1.296-1.195c0.305-0.149,0.49-0.332,0.625-0.533c0.172-0.075,0.347-0.143,0.518-0.221
		c5.205-2.38,10.277-5.014,15.105-8.073c0.033,5.905,0.092,11.81,0.146,17.715c-0.789-0.172-1.263-0.706-2.009-1.913
		c-0.132-0.213-0.252-0.434-0.368-0.657c-0.407-0.779-0.802-1.564-1.216-2.338c-0.217-0.406-0.521-0.726-1.036-0.663
		c-0.453,0.056-0.784,0.506-0.849,1.112c-0.08,0.747,0.147,1.428,0.478,2.08c0.69,1.359,1.628,2.529,2.731,3.574
		c0.264,0.25,0.519,0.509,0.766,0.752c-1.306,1.707-2.282,2.168-4.231,2.054c-0.157-0.009-0.314-0.016-0.471-0.014
		c-0.472,0.007-0.871,0.162-1.073,0.62c-0.203,0.46-0.034,0.869,0.263,1.219c0.516,0.61,1.209,0.875,1.987,0.939
		c0.805,0.067,1.554-0.145,2.275-0.484c0.556-0.261,1.112-0.524,1.668-0.786c-0.689,1.022-1.574,1.81-2.549,2.473
		c-1.344,0.913-1.909,2.204-2.017,3.749c-0.182,2.609-0.104,5.209,0.37,7.788c0.068,0.37,0.142,0.742,0.262,1.097
		c0.405,1.208,1.31,1.438,2.213,0.555c0.357-0.35,0.661-0.755,0.984-1.139c0.349-0.416,0.692-0.836,1.038-1.255
		c-0.326,1.253-0.751,2.425-1.227,3.576c-0.46,1.113-0.469,2.22,0.044,3.287c0.691,1.439,1.449,2.846,2.199,4.256
		c0.175,0.329,0.408,0.638,0.661,0.913c0.638,0.696,1.34,0.65,1.876-0.136c0.282-0.412,0.489-0.876,0.726-1.318
		c0.251-0.468,0.497-0.938,0.745-1.407c0.037,0.845-0.097,1.615-0.211,2.387c-0.229,1.552-0.525,3.109-0.049,4.666
		c0.284,0.929,0.548,1.87,0.919,2.765c1.353,3.266,2.977,6.391,5.458,8.953c1.415,1.462,3.005,2.756,4.523,4.117
		c0.161,0.145,0.357,0.263,0.555,0.351c0.685,0.305,1.272,0.069,1.494-0.646c0.129-0.414,0.158-0.862,0.208-1.297
		c0.084-0.719,0.148-1.441,0.221-2.161c0.348,0.817,0.532,1.636,0.713,2.456c0.377,1.708,1.3,3.05,2.755,4.006
		c0.627,0.412,1.29,0.781,1.971,1.095c2.125,0.98,4.397,1.487,6.682,1.891c2.47,0.437,4.961,0.758,7.446,1.107
		c1.926,0.27,3.858,0.506,5.787,0.756c0.427,0.055,0.838,0.003,1.094-0.38C307.156,303.448,307.015,303.049,306.779,302.696z
		 M289.846,171.531c-0.998,4.423-2.495,8.68-4.325,12.825c-1.334,3.021-2.728,6.01-4.23,8.943c-2.017-4.28-2.743-8.838-2.168-13.625
		c0.585-4.868,2.559-9.221,5.494-13.12c2.024-2.69,4.367-5.056,7.019-7.091C291.32,163.513,290.747,167.538,289.846,171.531z
		 M283.2,117.797c2.276,4.3,4.225,8.755,5.712,13.42c1.997,6.264,2.942,12.701,3.018,19.277c0.014,1.23,0,2.457-0.029,3.682
		c-2.068-1.184-3.65-2.917-4.989-4.936c-2.385-3.596-3.945-7.542-4.852-11.738C280.607,130.783,280.579,124.176,283.2,117.797z
		 M268.458,98.66c2.863,2.907,5.607,5.936,8.307,8.996c1.176,1.333,2.197,2.827,3.129,4.346c0.127,0.207,0.248,0.417,0.374,0.625
		c-4.876-1.18-9.26-3.281-12.884-6.827c-4.447-4.351-7.377-9.392-8.252-15.374C262.402,92.918,265.509,95.665,268.458,98.66z
		 M243.008,194.493c0,0.439-0.054,0.773-0.163,1.003c-0.109,0.23-0.288,0.394-0.538,0.493c-0.251,0.099-0.572,0.153-0.963,0.164
		c-0.392,0.011-0.881,0.016-1.469,0.016c-0.37,0-0.653-0.06-0.849-0.181c-0.196-0.12-0.343-0.334-0.441-0.641
		c-0.098-0.306-0.158-0.718-0.18-1.233c-0.022-0.515-0.033-1.189-0.033-2.022c0-1.666,0.005-3.069,0.017-4.208
		c0.011-1.14,0.016-2.082,0.016-2.827c0-0.745-0.022-1.332-0.066-1.759c-0.044-0.428-0.131-0.773-0.263-1.036
		c-0.11-0.263-0.241-0.411-0.394-0.444c-0.154-0.033-0.351,0.038-0.592,0.214c-0.483,0.351-0.871,0.795-1.167,1.331
		c-0.296,0.537-0.537,1.124-0.724,1.759c-0.186,0.636-0.328,1.299-0.427,1.989c-0.099,0.69-0.181,1.365-0.247,2.022
		c-0.11,0.943-0.154,1.775-0.131,2.499c0.022,0.723,0.049,1.353,0.082,1.89c0.033,0.537,0.044,0.981,0.033,1.331
		c-0.012,0.351-0.104,0.624-0.28,0.822c-0.175,0.197-0.455,0.318-0.838,0.362c-0.384,0.044-0.926,0.011-1.627-0.099
		c-0.548-0.065-0.887-0.372-1.019-0.921c-0.087-0.394-0.164-0.937-0.23-1.627c-0.065-0.69-0.126-1.458-0.181-2.301
		c-0.055-0.843-0.099-1.726-0.131-2.647c-0.033-0.92-0.061-1.802-0.082-2.646c-0.022-0.843-0.044-1.611-0.065-2.301
		c-0.022-0.69-0.033-1.243-0.033-1.66c0-0.811,0.175-1.365,0.526-1.66c0.35-0.296,0.876-0.465,1.578-0.509
		c0.592-0.022,1.024,0.028,1.299,0.148c0.274,0.121,0.46,0.312,0.559,0.575c0.099,0.263,0.148,0.575,0.148,0.937
		c0,0.362,0.022,0.772,0.066,1.233c0.109-0.153,0.241-0.34,0.394-0.559c0.153-0.218,0.323-0.443,0.51-0.674
		c0.186-0.23,0.367-0.449,0.542-0.658c0.175-0.208,0.34-0.378,0.493-0.509c0.658-0.548,1.303-0.855,1.937-0.921
		c0.634-0.066,1.218,0.055,1.751,0.362c0.533,0.307,1.017,0.773,1.452,1.397s0.794,1.343,1.077,2.153
		c0.283-0.613,0.539-1.167,0.769-1.66c0.23-0.493,0.575-0.97,1.035-1.43c0.35-0.35,0.745-0.608,1.183-0.773
		c0.438-0.164,0.882-0.241,1.331-0.23c0.449,0.012,0.893,0.11,1.332,0.296c0.438,0.187,0.822,0.455,1.15,0.806
		c0.679,0.723,1.178,1.649,1.496,2.778c0.318,1.129,0.526,2.351,0.624,3.666c0.099,1.315,0.132,2.669,0.099,4.06
		c-0.033,1.392-0.049,2.701-0.049,3.929c0,0.943-0.45,1.458-1.348,1.545c-0.789,0.087-1.408,0.082-1.857-0.016
		c-0.45-0.099-0.719-0.465-0.806-1.102c-0.066-0.526-0.115-1.161-0.148-1.907c-0.033-0.745-0.065-1.529-0.098-2.351
		c-0.033-0.822-0.066-1.665-0.099-2.531c-0.033-0.866-0.094-1.693-0.181-2.483c-0.088-0.789-0.203-1.506-0.345-2.153
		c-0.143-0.646-0.324-1.178-0.542-1.595c-0.088-0.175-0.23-0.274-0.428-0.296c-0.197-0.022-0.362,0.055-0.493,0.23
		c-0.241,0.307-0.428,0.619-0.559,0.937c-0.131,0.318-0.263,0.663-0.394,1.036c-0.307,0.877-0.532,1.693-0.674,2.449
		c-0.143,0.756-0.241,1.529-0.296,2.317c-0.055,0.789-0.077,1.649-0.065,2.581C243.002,192.186,243.008,193.266,243.008,194.493z
		 M246.46,155.983c0.011,2.225,0.005,4.466-0.017,6.723c0,0.526-0.104,0.904-0.312,1.134c-0.209,0.23-0.565,0.367-1.068,0.411
		c-0.176,0.022-0.34,0.028-0.494,0.016c-0.153-0.011-0.307-0.016-0.46-0.016c-0.307,0-0.554-0.011-0.74-0.033
		c-0.186-0.022-0.334-0.077-0.444-0.165c-0.11-0.087-0.208-0.218-0.296-0.394c-0.088-0.175-0.187-0.416-0.296-0.723
		c-1.446,0.921-2.97,1.216-4.57,0.888c-0.855-0.175-1.583-0.521-2.186-1.036c-0.603-0.515-1.113-1.167-1.529-1.956
		c-0.241-0.504-0.428-1.019-0.559-1.545c-0.131-0.526-0.241-1.063-0.329-1.611c-0.175-1.358-0.296-2.707-0.362-4.043
		c-0.065-1.337-0.088-2.685-0.065-4.044c0.022-0.153,0.033-0.301,0.033-0.444c0-0.142,0.011-0.279,0.033-0.411
		c0.066-0.416,0.186-0.718,0.362-0.904c0.175-0.186,0.46-0.301,0.855-0.345c0.636-0.044,1.282-0.044,1.94,0
		c0.46,0.044,0.8,0.176,1.019,0.395c0.218,0.219,0.34,0.581,0.362,1.085c0.044,0.745,0.076,1.485,0.099,2.219
		c0.022,0.734,0.033,1.463,0.033,2.186c0,0.943,0.016,1.874,0.049,2.795c0.033,0.921,0.17,1.841,0.411,2.762
		c0.065,0.263,0.142,0.526,0.23,0.789c0.087,0.263,0.197,0.515,0.329,0.756c0.153,0.394,0.416,0.734,0.789,1.019
		c0.307,0.263,0.57,0.384,0.789,0.362c0.219-0.022,0.471-0.186,0.756-0.494c0.416-0.438,0.734-0.925,0.954-1.463
		c0.218-0.537,0.383-1.09,0.493-1.66c0.241-1.359,0.378-2.707,0.411-4.044c0.033-1.336,0.016-2.684-0.049-4.043
		c0-0.263-0.011-0.526-0.033-0.789c-0.022-0.263-0.022-0.526,0-0.789c0.065-0.855,0.493-1.282,1.282-1.282
		c0.197-0.022,0.399-0.028,0.608-0.017c0.208,0.012,0.411,0.017,0.608,0.017c0.745,0.065,1.183,0.482,1.315,1.249
		c0.022,0.11,0.033,0.225,0.033,0.345c0,0.121,0,0.247,0,0.378C246.443,151.518,246.448,153.759,246.46,155.983z M245.144,116.848
		c-0.153,0.504-0.307,1.009-0.46,1.512c-0.154,0.504-0.318,1.009-0.494,1.512c-0.526,1.578-1.058,3.151-1.594,4.718
		c-0.537,1.567-1.068,3.14-1.595,4.718c-0.131,0.351-0.263,0.702-0.394,1.052c-0.131,0.351-0.285,0.702-0.46,1.052
		c-0.285,0.548-0.647,0.833-1.085,0.855c-0.439,0.022-0.811-0.23-1.118-0.756c-0.241-0.372-0.45-0.75-0.624-1.134
		c-0.176-0.383-0.351-0.772-0.526-1.167c-0.504-1.183-1.008-2.367-1.512-3.55c-0.504-1.183-1.008-2.367-1.512-3.55
		c-0.351-0.833-0.679-1.66-0.986-2.482c-0.307-0.822-0.624-1.649-0.953-2.482l-0.099-0.296c-0.241-0.767,0.066-1.183,0.921-1.249
		c0.307-0.022,0.619-0.033,0.937-0.033c0.318,0,0.641,0,0.97,0c0.175,0,0.356,0.011,0.543,0.033c0.186,0.022,0.367,0.022,0.542,0
		c0.614-0.065,1.03,0.197,1.249,0.789c0.307,0.768,0.624,1.545,0.953,2.334c0.329,0.789,0.646,1.578,0.953,2.367
		c0.197,0.505,0.4,0.998,0.609,1.48c0.208,0.482,0.411,0.975,0.608,1.479c0.044,0.11,0.093,0.219,0.148,0.329
		c0.054,0.11,0.126,0.252,0.214,0.428c0.109-0.329,0.214-0.636,0.312-0.921c0.099-0.284,0.203-0.559,0.312-0.822
		c0.372-1.118,0.745-2.214,1.118-3.288c0.372-1.074,0.745-2.17,1.118-3.288c0-0.066,0.011-0.12,0.033-0.164
		c0.241-0.745,0.668-1.03,1.282-0.855C245.166,115.643,245.363,116.104,245.144,116.848z M251.16,164.317c-0.34,0-0.751,0-1.233,0
		c-0.46,0-0.729-0.109-0.806-0.329c-0.077-0.219-0.126-0.46-0.148-0.723c-0.044-0.504-0.099-1.014-0.164-1.529
		c-0.066-0.515-0.099-1.024-0.099-1.529c-0.022-1.534-0.033-3.063-0.033-4.586c0-1.523,0-3.052,0-4.587
		c0-0.372-0.006-0.734-0.017-1.085c-0.011-0.35-0.006-0.712,0.017-1.085c0.044-0.504,0.175-0.86,0.394-1.068
		c0.219-0.208,0.57-0.334,1.052-0.378h1.512c0.613,0.022,0.997,0.34,1.151,0.953c0.022,0.175,0.038,0.34,0.049,0.493
		c0.011,0.153,0.027,0.307,0.049,0.46c0,0.219,0,0.428,0,0.624c0,0.197,0.011,0.395,0.033,0.592c0,0.044,0,0.088,0,0.131
		c0,0.044,0.011,0.121,0.033,0.23c0.131-0.175,0.247-0.334,0.345-0.477c0.099-0.142,0.192-0.279,0.279-0.411
		c0.46-0.636,0.987-1.161,1.578-1.578c0.592-0.416,1.282-0.69,2.071-0.822c0.416-0.065,0.844-0.054,1.282,0.033
		c0.438,0.087,0.843,0.241,1.217,0.46c0.372,0.219,0.707,0.488,1.002,0.805c0.296,0.318,0.521,0.674,0.674,1.069
		c0.241,0.614,0.109,1.03-0.394,1.249c-0.439,0.197-0.834,0.044-1.183-0.46c-0.132-0.175-0.263-0.356-0.395-0.542
		c-0.131-0.186-0.285-0.345-0.46-0.477c-0.394-0.307-0.806-0.444-1.233-0.411c-0.428,0.033-0.861,0.17-1.299,0.411
		c-0.768,0.438-1.37,1.085-1.808,1.939c-0.373,0.658-0.669,1.337-0.887,2.038c-0.219,0.702-0.406,1.425-0.559,2.17
		c-0.394,2.104-0.592,4.23-0.592,6.378c-0.022,0.044-0.028,0.094-0.016,0.148c0.011,0.055,0.005,0.104-0.016,0.148
		c0,0.482-0.044,0.844-0.132,1.085c-0.087,0.241-0.236,0.411-0.443,0.509C251.774,164.267,251.5,164.317,251.16,164.317z
		 M256.749,117.95c0.592,0.735,1.074,1.584,1.447,2.548c0.372,0.965,0.569,1.995,0.592,3.09c0,0.68-0.082,1.195-0.247,1.546
		c-0.165,0.351-0.515,0.603-1.052,0.756c-0.537,0.153-1.315,0.241-2.334,0.263c-1.019,0.022-2.384,0.033-4.093,0.033
		c0.065,0.833,0.225,1.578,0.477,2.236c0.252,0.657,0.728,1.173,1.43,1.545c0.329,0.197,0.685,0.285,1.068,0.263
		c0.383-0.022,0.745-0.109,1.085-0.263c0.34-0.153,0.658-0.356,0.954-0.608c0.296-0.252,0.531-0.521,0.707-0.806
		c0.044-0.109,0.098-0.208,0.164-0.296c0.066-0.087,0.12-0.175,0.164-0.263c0.197-0.219,0.406-0.34,0.625-0.362
		c0.219-0.022,0.411,0.028,0.575,0.148c0.164,0.121,0.284,0.291,0.362,0.51c0.076,0.219,0.049,0.46-0.082,0.723
		c-0.373,0.767-0.866,1.397-1.48,1.89c-0.614,0.493-1.293,0.866-2.038,1.118c-0.745,0.253-1.524,0.39-2.334,0.411
		c-0.811,0.022-1.6-0.077-2.367-0.296c-0.745-0.197-1.397-0.581-1.956-1.15c-0.559-0.57-1.019-1.249-1.38-2.039
		c-0.362-0.789-0.62-1.66-0.773-2.613c-0.153-0.953-0.203-1.924-0.148-2.91c0.054-0.986,0.225-1.945,0.509-2.876
		c0.284-0.931,0.69-1.781,1.216-2.548c0.636-0.942,1.348-1.616,2.137-2.022c0.789-0.406,1.583-0.581,2.383-0.526
		c0.8,0.055,1.583,0.302,2.351,0.74C255.478,116.63,256.158,117.216,256.749,117.95z M221.647,75.897
		c5.744,0.364,11.237,1.867,16.701,3.588c5.313,1.674,10.206,4.003,14.782,6.823c-3.102,0.597-6.25,0.706-9.436,0.412
		c-4.972-0.457-9.661-1.869-14.062-4.217c-3.327-1.775-6.219-4.103-8.928-6.661C221.017,75.861,221.332,75.877,221.647,75.897z
		 M218.203,123.424c0.054-0.986,0.225-1.945,0.509-2.876c0.284-0.931,0.69-1.781,1.216-2.548c0.636-0.942,1.348-1.616,2.137-2.022
		c0.789-0.406,1.583-0.581,2.383-0.526c0.8,0.055,1.583,0.302,2.351,0.74c0.767,0.439,1.446,1.025,2.038,1.759
		c0.592,0.735,1.074,1.584,1.447,2.548c0.372,0.965,0.569,1.995,0.592,3.09c0,0.68-0.082,1.195-0.247,1.546
		c-0.165,0.351-0.516,0.603-1.052,0.756c-0.537,0.153-1.315,0.241-2.334,0.263c-1.019,0.022-2.384,0.033-4.093,0.033
		c0.065,0.833,0.225,1.578,0.477,2.236c0.252,0.657,0.728,1.173,1.43,1.545c0.329,0.197,0.685,0.285,1.068,0.263
		c0.383-0.022,0.745-0.109,1.085-0.263c0.34-0.153,0.658-0.356,0.954-0.608c0.296-0.252,0.531-0.521,0.707-0.806
		c0.044-0.109,0.098-0.208,0.164-0.296c0.066-0.087,0.12-0.175,0.164-0.263c0.197-0.219,0.406-0.34,0.625-0.362
		c0.219-0.022,0.411,0.028,0.575,0.148c0.164,0.121,0.284,0.291,0.362,0.51c0.076,0.219,0.049,0.46-0.082,0.723
		c-0.373,0.767-0.866,1.397-1.48,1.89c-0.614,0.493-1.293,0.866-2.038,1.118c-0.745,0.253-1.524,0.39-2.334,0.411
		c-0.811,0.022-1.6-0.077-2.367-0.296c-0.745-0.197-1.397-0.581-1.956-1.15c-0.559-0.57-1.019-1.249-1.38-2.039
		c-0.362-0.789-0.62-1.66-0.773-2.613C218.197,125.38,218.147,124.41,218.203,123.424z M216.954,153.944
		c0.197-1.151,0.548-2.214,1.052-3.189c0.504-0.975,1.145-1.786,1.923-2.433c0.778-0.646,1.693-0.991,2.745-1.035
		c1.665-0.066,3.085,0.318,4.257,1.15c1.172,0.834,2.109,2.039,2.811,3.616c0.526,1.293,0.789,2.784,0.789,4.471
		c-0.088,1.907-0.46,3.452-1.118,4.636c-0.657,1.183-1.463,2.049-2.416,2.597c-0.954,0.548-1.995,0.794-3.123,0.74
		c-1.129-0.055-2.186-0.372-3.172-0.953c-0.987-0.581-1.841-1.408-2.564-2.482c-0.723-1.074-1.162-2.356-1.315-3.847
		C216.713,156.185,216.757,155.095,216.954,153.944z M211.331,128.371c-0.033-0.646-0.065-1.326-0.098-2.038
		c-0.033-0.712-0.066-1.408-0.099-2.088c-0.033-0.679-0.05-1.271-0.05-1.775c0-0.767,0.12-1.271,0.362-1.512
		c0.241-0.241,0.745-0.362,1.512-0.362c0.307,0,0.597,0,0.871,0c0.274,0,0.564,0.011,0.871,0.033
		c0.767,0.066,1.194,0.493,1.282,1.282v0.756c0,0.965,0,1.72,0,2.268c0,0.548-0.006,1.058-0.016,1.529
		c-0.011,0.472-0.016,0.986-0.016,1.545c0,0.559,0,1.31,0,2.252c0,0.417-0.022,0.746-0.066,0.987
		c-0.044,0.241-0.131,0.433-0.263,0.575c-0.131,0.143-0.318,0.247-0.559,0.312c-0.241,0.066-0.57,0.121-0.986,0.165
		c-0.241,0.044-0.477,0.077-0.707,0.099s-0.466,0.033-0.707,0.033c-0.746,0.022-1.162-0.34-1.249-1.085
		c-0.044-0.219-0.061-0.438-0.049-0.658c0.011-0.219,0.016-0.438,0.016-0.658C211.381,129.571,211.365,129.018,211.331,128.371z
		 M215.145,115.139c0.449,0.505,0.685,1.151,0.707,1.94c0,0.636-0.192,1.162-0.575,1.578c-0.384,0.417-0.893,0.647-1.529,0.69
		c-0.351,0.022-0.68-0.033-0.986-0.164c-0.307-0.131-0.575-0.312-0.806-0.543s-0.411-0.509-0.543-0.838
		c-0.131-0.329-0.197-0.69-0.197-1.085c0-0.679,0.203-1.238,0.609-1.677c0.405-0.438,0.937-0.658,1.594-0.658
		C214.12,114.383,214.696,114.635,215.145,115.139z M191.581,79.014c4.283-1.367,8.696-2.169,13.145-2.803
		c2.774-0.395,5.549-0.563,8.327-0.59c-0.142,0.184-0.283,0.367-0.427,0.549c-3.226,4.098-7.257,7.114-12.107,9.044
		c-5.513,2.194-11.164,2.982-17.054,1.901c-2.417-0.443-4.771-1.064-7.076-1.856C181.257,82.765,186.326,80.691,191.581,79.014z
		 M208.603,113.347c0.011,0.537,0.022,1.096,0.033,1.677c0.011,0.581,0.016,1.156,0.016,1.726c0.022,1.337,0.033,2.74,0.033,4.208
		c0.022,2.192,0.06,4,0.115,5.424c0.054,1.425,0.082,2.564,0.082,3.419c0,0.855-0.05,1.48-0.148,1.874
		c-0.098,0.395-0.279,0.653-0.542,0.773c-0.263,0.12-0.636,0.148-1.118,0.082c-0.482-0.066-1.096-0.12-1.841-0.165
		c-0.373-0.044-0.603-0.164-0.69-0.362c-0.088-0.197-0.132-0.515-0.132-0.953c-0.044-3.703-0.082-6.816-0.115-9.336
		c-0.033-2.52-0.061-4.587-0.082-6.197c-0.022-1.611-0.033-2.832-0.033-3.666c0-0.833,0.022-1.435,0.065-1.808
		c0.044-0.372,0.115-0.581,0.214-0.624c0.099-0.044,0.225-0.077,0.378-0.099c0.613-0.022,1.156-0.044,1.627-0.066
		c0.471-0.022,0.86,0.006,1.167,0.082c0.307,0.077,0.543,0.214,0.707,0.411c0.164,0.197,0.247,0.505,0.247,0.921
		c0,0.329,0,0.724,0,1.183C208.586,112.311,208.592,112.811,208.603,113.347z M194.697,128.421c0.252,0.657,0.728,1.173,1.43,1.545
		c0.329,0.197,0.685,0.285,1.068,0.263c0.383-0.022,0.745-0.109,1.085-0.263c0.34-0.153,0.658-0.356,0.954-0.608
		c0.296-0.252,0.531-0.521,0.707-0.806c0.044-0.109,0.098-0.208,0.164-0.296c0.066-0.087,0.12-0.175,0.164-0.263
		c0.197-0.219,0.406-0.34,0.625-0.362c0.219-0.022,0.411,0.028,0.575,0.148c0.164,0.121,0.284,0.291,0.362,0.51
		c0.076,0.219,0.049,0.46-0.082,0.723c-0.373,0.767-0.866,1.397-1.48,1.89s-1.293,0.866-2.038,1.118
		c-0.745,0.253-1.524,0.39-2.334,0.411c-0.811,0.022-1.6-0.077-2.367-0.296c-0.745-0.197-1.397-0.581-1.956-1.15
		c-0.559-0.57-1.019-1.249-1.38-2.039c-0.362-0.789-0.62-1.66-0.773-2.613c-0.153-0.953-0.203-1.924-0.148-2.91
		c0.054-0.986,0.225-1.945,0.509-2.876c0.284-0.931,0.69-1.781,1.216-2.548c0.636-0.942,1.348-1.616,2.137-2.022
		c0.789-0.406,1.583-0.581,2.383-0.526c0.8,0.055,1.583,0.302,2.351,0.74c0.767,0.439,1.446,1.025,2.038,1.759
		c0.592,0.735,1.074,1.584,1.447,2.548c0.372,0.965,0.569,1.995,0.592,3.09c0,0.68-0.082,1.195-0.247,1.546
		c-0.165,0.351-0.515,0.603-1.052,0.756c-0.537,0.153-1.315,0.241-2.334,0.263c-1.019,0.022-2.384,0.033-4.093,0.033
		C194.286,127.018,194.445,127.763,194.697,128.421z M184.144,181.737c-0.011-0.35-0.006-0.712,0.017-1.085
		c0.044-0.504,0.175-0.86,0.394-1.068c0.219-0.208,0.57-0.334,1.052-0.378h1.512c0.613,0.022,0.997,0.34,1.151,0.953
		c0.022,0.175,0.038,0.34,0.049,0.493c0.011,0.153,0.027,0.307,0.049,0.46c0,0.219,0,0.428,0,0.624c0,0.197,0.011,0.395,0.033,0.592
		c0,0.044,0,0.088,0,0.131c0,0.044,0.011,0.121,0.033,0.23c0.131-0.175,0.247-0.334,0.345-0.477
		c0.099-0.142,0.192-0.279,0.279-0.411c0.46-0.636,0.987-1.161,1.578-1.578c0.592-0.416,1.282-0.69,2.071-0.822
		c0.416-0.065,0.844-0.054,1.282,0.033s0.843,0.241,1.217,0.46c0.372,0.219,0.707,0.488,1.002,0.805
		c0.296,0.318,0.521,0.674,0.674,1.069c0.241,0.614,0.109,1.03-0.394,1.249c-0.439,0.197-0.834,0.044-1.183-0.46
		c-0.132-0.175-0.263-0.356-0.395-0.542c-0.131-0.186-0.285-0.345-0.46-0.477c-0.394-0.307-0.806-0.444-1.233-0.411
		c-0.428,0.033-0.861,0.17-1.299,0.411c-0.768,0.438-1.37,1.085-1.808,1.939c-0.373,0.658-0.669,1.337-0.887,2.038
		c-0.219,0.702-0.406,1.425-0.559,2.17c-0.394,2.104-0.592,4.23-0.592,6.378c-0.022,0.044-0.028,0.094-0.016,0.148
		c0.011,0.055,0.005,0.104-0.016,0.148c0,0.482-0.044,0.844-0.132,1.085c-0.087,0.241-0.236,0.411-0.443,0.509
		c-0.209,0.099-0.482,0.148-0.822,0.148c-0.34,0-0.751,0-1.233,0c-0.46,0-0.729-0.109-0.806-0.329
		c-0.077-0.219-0.126-0.46-0.148-0.723c-0.044-0.504-0.099-1.014-0.164-1.529c-0.066-0.515-0.099-1.024-0.099-1.529
		c-0.022-1.534-0.033-3.063-0.033-4.586c0-1.523,0-3.052,0-4.587C184.161,182.449,184.155,182.088,184.144,181.737z
		 M180.693,160.881c0.022,0.69,0.016,1.288-0.016,1.792s-0.131,0.904-0.296,1.2c-0.164,0.296-0.433,0.466-0.806,0.509
		c-0.833,0.087-1.474,0.109-1.923,0.066c-0.45-0.044-0.778-0.192-0.986-0.444c-0.209-0.252-0.34-0.641-0.395-1.167
		c-0.055-0.526-0.094-1.238-0.115-2.137c-0.044-1.096-0.077-2.055-0.099-2.877s-0.049-1.714-0.082-2.679
		c-0.033-0.965-0.061-1.868-0.082-2.713c-0.022-0.843-0.038-1.567-0.049-2.17c-0.011-0.603-0.016-0.958-0.016-1.068
		c0.022-0.416,0.12-0.723,0.296-0.921c0.175-0.197,0.405-0.329,0.69-0.394c0.284-0.066,0.619-0.087,1.002-0.066
		c0.384,0.022,0.794,0.066,1.233,0.131c0.329,0.044,0.575,0.131,0.74,0.263c0.165,0.132,0.285,0.285,0.362,0.46
		c0.077,0.176,0.126,0.378,0.148,0.608c0.022,0.23,0.044,0.466,0.065,0.707c0.022,0.131,0.038,0.263,0.05,0.394
		c0.011,0.131,0.027,0.296,0.049,0.493c0.241-0.35,0.471-0.69,0.69-1.019c0.219-0.328,0.46-0.641,0.723-0.937
		c0.263-0.296,0.564-0.569,0.904-0.822c0.34-0.252,0.75-0.477,1.233-0.674c0.855-0.285,1.688-0.252,2.499,0.099
		c1.183,0.482,2.06,1.282,2.63,2.4c0.57,1.118,0.958,2.406,1.167,3.863c0.208,1.458,0.301,2.991,0.279,4.602
		c-0.022,1.611-0.044,3.151-0.065,4.619c0,0.373-0.088,0.652-0.263,0.838c-0.176,0.186-0.411,0.318-0.707,0.394
		c-0.296,0.077-0.658,0.115-1.085,0.115c-0.427,0-0.893-0.011-1.397-0.033c-0.307,0-0.559-0.033-0.756-0.099
		c-0.197-0.066-0.351-0.219-0.46-0.46c-0.11-0.241-0.197-0.602-0.263-1.085c-0.066-0.482-0.121-1.145-0.165-1.989
		c-0.044-0.843-0.093-1.895-0.148-3.156c-0.055-1.26-0.126-2.8-0.214-4.619c-0.044-0.789-0.252-1.468-0.624-2.038
		c-0.241-0.372-0.482-0.575-0.723-0.608c-0.241-0.033-0.515,0.104-0.822,0.411c-0.307,0.307-0.559,0.636-0.756,0.987
		c-0.197,0.351-0.362,0.723-0.493,1.118c-0.351,1.074-0.592,2.099-0.723,3.074c-0.131,0.975-0.209,1.885-0.23,2.729
		C180.671,159.424,180.671,160.191,180.693,160.881z M171.504,109.55c0.022-0.131,0.137-0.219,0.345-0.263
		c0.208-0.044,0.553-0.066,1.036-0.066c0.482,0,1.183,0.011,2.104,0.033c0.328,0,0.542,0.143,0.641,0.428
		c0.099,0.285,0.148,0.768,0.148,1.446c0,0.68-0.011,1.578-0.033,2.696c-0.022,1.118,0.022,2.51,0.131,4.175
		c0.219-0.109,0.509-0.296,0.871-0.559c0.362-0.263,0.81-0.515,1.348-0.756c0.537-0.241,1.172-0.416,1.907-0.526
		c0.734-0.109,1.595-0.076,2.581,0.099c0.921,0.176,1.704,0.603,2.351,1.282c0.646,0.68,1.145,1.502,1.496,2.466
		c0.35,0.965,0.553,2.017,0.608,3.156c0.055,1.14-0.044,2.247-0.296,3.32c-0.252,1.074-0.663,2.061-1.233,2.959
		c-0.57,0.899-1.299,1.595-2.186,2.088c-0.888,0.493-1.94,0.723-3.156,0.69c-1.217-0.033-2.603-0.433-4.159-1.2
		c0,0.373-0.022,0.657-0.065,0.855c-0.044,0.197-0.17,0.34-0.378,0.428c-0.208,0.088-0.542,0.131-1.002,0.131
		c-0.46,0-1.107-0.011-1.94-0.033c-0.197,0-0.345-0.038-0.443-0.115c-0.099-0.077-0.176-0.323-0.23-0.74
		c-0.055-0.416-0.094-1.068-0.115-1.956c-0.022-0.888-0.044-2.159-0.066-3.814c-0.022-1.655-0.055-3.748-0.099-6.279
		c-0.044-2.532-0.11-5.649-0.197-9.353C171.471,109.879,171.482,109.682,171.504,109.55z M168.972,160.158
		c-0.033-0.646-0.065-1.326-0.098-2.038c-0.033-0.712-0.066-1.408-0.099-2.088c-0.033-0.679-0.05-1.271-0.05-1.775
		c0-0.767,0.12-1.271,0.362-1.512c0.241-0.241,0.745-0.362,1.512-0.362c0.307,0,0.597,0,0.871,0c0.274,0,0.564,0.011,0.871,0.033
		c0.767,0.066,1.194,0.493,1.282,1.282v0.756c0,0.965,0,1.72,0,2.268c0,0.548-0.006,1.058-0.016,1.529
		c-0.011,0.472-0.016,0.986-0.016,1.545s0,1.31,0,2.252c0,0.417-0.022,0.746-0.066,0.987c-0.044,0.241-0.131,0.433-0.263,0.575
		c-0.131,0.143-0.318,0.247-0.559,0.312c-0.241,0.066-0.57,0.121-0.986,0.165c-0.241,0.044-0.477,0.077-0.707,0.099
		s-0.466,0.033-0.707,0.033c-0.746,0.022-1.162-0.34-1.249-1.085c-0.044-0.219-0.061-0.438-0.049-0.658
		c0.011-0.219,0.016-0.438,0.016-0.658C169.022,161.358,169.006,160.805,168.972,160.158z M171.06,146.169
		c0.701,0,1.277,0.252,1.726,0.756c0.449,0.505,0.685,1.151,0.707,1.94c0,0.636-0.192,1.162-0.575,1.578
		c-0.384,0.417-0.893,0.647-1.529,0.69c-0.351,0.022-0.68-0.033-0.986-0.164c-0.307-0.131-0.575-0.312-0.806-0.543
		s-0.411-0.509-0.543-0.838c-0.131-0.329-0.197-0.69-0.197-1.085c0-0.679,0.203-1.238,0.609-1.677
		C169.871,146.389,170.403,146.169,171.06,146.169z M152.036,105.079c2.423-2.761,4.927-5.451,7.431-8.14
		c2.217-2.381,4.807-4.317,7.495-6.128c0.968-0.652,1.946-1.283,2.933-1.894c-1.189,4.406-2.995,8.519-6.038,12.051
		c-3.375,3.917-7.448,6.727-12.53,7.935c-0.937,0.223-1.882,0.381-2.832,0.499C149.628,107.925,150.806,106.481,152.036,105.079z
		 M138.138,131.323c1.206-5.077,2.904-9.982,5.44-14.543c0.33,1.596,0.535,3.219,0.588,4.882c-0.259,2.059-0.368,4.151-0.805,6.171
		c-1.268,5.862-3.783,11.169-7.499,15.877C136.399,139.643,137.153,135.467,138.138,131.323z M144.114,190.198
		c-0.125,0.475-0.285,0.94-0.439,1.407c-4.139-7.877-6.822-16.366-8.319-25.346c-0.503-3.017-0.612-6.077-0.487-10.131
		c2.916,3.106,5.081,6.726,6.609,10.774c1.898,5.026,2.924,10.246,3.237,15.6C144.866,185.086,144.777,187.679,144.114,190.198z
		 M160.977,213.141c-0.501-0.376-0.958-0.795-1.437-1.192c-0.087-0.525-0.324-0.996-0.738-1.408
		c-0.508-0.505-0.99-1.018-1.641-1.373c-0.333-0.182-0.622-0.389-0.981-0.293c-2.086-2.115-4.008-4.387-5.817-6.765
		c-0.69-0.907-1.347-1.829-1.989-2.757c0.195,0.082,0.389,0.169,0.584,0.251c4.527,1.897,8.409,4.712,11.765,8.272
		c2.493,2.645,4.493,5.59,5.631,9.05C164.532,215.712,162.733,214.46,160.977,213.141z M169.104,193.638
		c-0.899-1.096-1.485-2.285-1.759-3.567c-0.275-1.282-0.318-2.526-0.131-3.731c0.186-1.205,0.58-2.312,1.183-3.32
		c0.602-1.008,1.326-1.792,2.17-2.351c0.843-0.559,1.786-0.833,2.827-0.822c1.041,0.011,2.098,0.422,3.172,1.233
		c0.087,0.065,0.17,0.126,0.247,0.181c0.077,0.055,0.181,0.137,0.312,0.247c0.109-1.534,0.148-2.816,0.115-3.847
		c-0.033-1.03-0.066-1.868-0.099-2.515c-0.033-0.646-0.038-1.129-0.016-1.446c0.022-0.318,0.137-0.543,0.345-0.674
		c0.208-0.131,0.537-0.192,0.986-0.181c0.449,0.012,1.08,0.017,1.89,0.017c0.614,0,1.019,0.131,1.217,0.394
		c0.197,0.263,0.296,0.603,0.296,1.019c0,0.219,0.005,0.811,0.017,1.775c0.011,0.965,0.022,2.126,0.033,3.484
		c0.011,1.359,0.022,2.828,0.033,4.406c0.011,1.578,0.016,3.09,0.016,4.537c0,1.446-0.006,2.74-0.016,3.879
		c-0.011,1.14-0.016,1.951-0.016,2.433c0,0.504-0.088,0.855-0.263,1.052c-0.176,0.197-0.505,0.318-0.987,0.362
		c-0.789,0.044-1.397,0.071-1.824,0.082c-0.428,0.011-0.756-0.016-0.987-0.082c-0.23-0.066-0.394-0.181-0.493-0.345
		c-0.099-0.165-0.203-0.4-0.312-0.707c-0.394,0.131-0.887,0.301-1.479,0.509c-0.592,0.209-1.244,0.318-1.956,0.329
		c-0.712,0.011-1.458-0.142-2.236-0.46C170.61,195.211,169.849,194.581,169.104,193.638z M193.349,228.619
		c-0.033-0.38-0.091-0.759-0.223-1.132c-0.313-0.888-0.892-1.285-1.778-1.221c-0.181,0.013-0.36,0.066-0.531,0.098
		c-0.119-0.113-0.213-0.195-0.299-0.284c-0.56-0.575-1.202-0.82-1.943-0.388c-0.311,0.181-0.519,0.019-0.785-0.055
		c-0.69-0.194-1.182,0.222-1.122,0.943c0.007,0.083,0.029,0.164,0.044,0.247c-2.834-0.854-5.631-1.818-8.348-3.024
		c-1.06-0.471-2.117-0.957-3.137-1.508c-0.889-0.48-1.762-0.987-2.637-1.491c3.098-0.852,6.269-1.241,9.484-1.191
		c3.886,0.06,7.652,0.883,11.273,2.303c5.456,2.14,10.283,5.231,14.566,9.137C202.993,230.636,198.145,229.783,193.349,228.619z
		 M203.606,191.994c0.252,0.657,0.728,1.173,1.43,1.545c0.329,0.197,0.685,0.285,1.068,0.263c0.383-0.022,0.745-0.109,1.085-0.263
		c0.34-0.153,0.658-0.356,0.954-0.608c0.296-0.252,0.531-0.521,0.707-0.806c0.044-0.109,0.098-0.208,0.164-0.296
		c0.066-0.087,0.12-0.175,0.164-0.263c0.197-0.219,0.406-0.34,0.625-0.362c0.219-0.022,0.411,0.028,0.575,0.148
		c0.164,0.121,0.284,0.291,0.362,0.51c0.076,0.219,0.049,0.46-0.082,0.723c-0.373,0.767-0.866,1.397-1.48,1.89
		s-1.293,0.866-2.038,1.118c-0.745,0.253-1.524,0.39-2.334,0.411c-0.811,0.022-1.6-0.077-2.367-0.296
		c-0.745-0.197-1.397-0.581-1.956-1.15c-0.559-0.57-1.019-1.249-1.38-2.039c-0.362-0.789-0.62-1.66-0.773-2.613
		c-0.153-0.953-0.203-1.924-0.148-2.91c0.054-0.986,0.225-1.945,0.509-2.876c0.284-0.931,0.69-1.781,1.216-2.548
		c0.636-0.942,1.348-1.616,2.137-2.022c0.789-0.406,1.583-0.581,2.383-0.526c0.8,0.055,1.583,0.302,2.351,0.74
		c0.767,0.439,1.446,1.025,2.038,1.759c0.592,0.735,1.074,1.584,1.447,2.548c0.372,0.965,0.569,1.995,0.592,3.09
		c0,0.68-0.082,1.195-0.247,1.546c-0.165,0.351-0.516,0.603-1.052,0.756c-0.537,0.153-1.315,0.241-2.334,0.263
		c-1.019,0.022-2.384,0.033-4.093,0.033C203.195,190.592,203.354,191.337,203.606,191.994z M212.614,167.161
		c-0.548,0.888-1.189,1.523-1.923,1.907c-0.734,0.383-1.518,0.592-2.351,0.625c-0.833,0.033-1.677-0.082-2.532-0.345
		c-0.855-0.263-1.688-0.592-2.498-0.987c-0.307-0.153-0.499-0.373-0.575-0.657c-0.077-0.285-0.077-0.559,0-0.822
		c0.077-0.263,0.23-0.455,0.46-0.575c0.23-0.121,0.509-0.094,0.838,0.082c1.468,0.833,2.602,1.249,3.403,1.249
		c0.8,0,1.397-0.285,1.792-0.855c0.394-0.57,0.641-1.354,0.74-2.351c0.099-0.997,0.181-2.055,0.247-3.172
		c-0.415,0.789-0.857,1.403-1.327,1.841c-0.469,0.439-1.108,0.735-1.916,0.888c-0.633,0.11-1.201,0.131-1.703,0.065
		c-0.502-0.065-0.944-0.208-1.327-0.427c-0.382-0.219-0.716-0.504-1-0.855c-0.284-0.35-0.525-0.745-0.721-1.184
		c-0.197-0.416-0.399-0.986-0.606-1.709c-0.208-0.723-0.382-1.605-0.524-2.647c-0.142-1.04-0.24-2.252-0.295-3.633
		c-0.055-1.38-0.05-2.947,0.016-4.701c0-0.263,0.033-0.487,0.099-0.674c0.065-0.186,0.191-0.334,0.378-0.444
		c0.186-0.109,0.455-0.192,0.806-0.247c0.35-0.055,0.822-0.104,1.414-0.148c0.372-0.022,0.69-0.044,0.953-0.065
		c0.263-0.022,0.477,0.016,0.641,0.115c0.165,0.099,0.285,0.29,0.362,0.575c0.077,0.285,0.126,0.723,0.148,1.315
		c0.022,0.899,0.022,1.764,0,2.597c-0.022,0.833-0.033,1.655-0.033,2.466c0,0.811,0.017,1.627,0.05,2.449
		c0.033,0.822,0.115,1.671,0.247,2.548c0.109,0.68,0.274,1.167,0.493,1.463c0.219,0.296,0.465,0.444,0.74,0.444
		c0.274,0,0.559-0.126,0.855-0.378c0.296-0.252,0.57-0.586,0.822-1.003c0.252-0.416,0.471-0.887,0.657-1.414
		c0.186-0.526,0.301-1.063,0.345-1.611c0.065-1.03,0.093-2.071,0.082-3.123c-0.011-1.052-0.016-2.016-0.016-2.893
		c0-0.876,0.043-1.616,0.131-2.219c0.087-0.603,0.272-0.98,0.555-1.134c0.131-0.066,0.315-0.115,0.555-0.148
		c0.239-0.033,0.494-0.06,0.767-0.082s0.533-0.028,0.784-0.017c0.25,0.012,0.451,0.017,0.604,0.017
		c0.218,0.022,0.479,0.11,0.784,0.263c0.305,0.153,0.479,0.34,0.523,0.559c-0.022,1.162-0.044,2.214-0.066,3.156
		c-0.022,0.943-0.038,2.017-0.049,3.222c-0.011,1.205-0.016,2.444-0.016,3.715c0,2.17-0.165,3.984-0.493,5.441
		C213.601,165.1,213.162,166.273,212.614,167.161z M215.096,194.246c-0.483-0.471-0.888-1.019-1.217-1.644
		c-0.329-0.624-0.548-1.309-0.657-2.055c-0.373-2.673,0.011-5.194,1.15-7.561c0.395-0.855,0.893-1.534,1.496-2.038
		c0.603-0.504,1.255-0.86,1.956-1.069c0.701-0.208,1.419-0.279,2.153-0.213c0.734,0.065,1.441,0.241,2.12,0.526
		c0.175,0.066,0.35,0.143,0.526,0.23c0.175,0.088,0.362,0.187,0.559,0.296c0.022-0.175,0.038-0.334,0.049-0.477
		c0.011-0.142,0.027-0.29,0.049-0.443c0.044-0.219,0.115-0.4,0.214-0.543c0.099-0.142,0.257-0.203,0.477-0.181
		c0.504,0,1.019,0.011,1.545,0.033c0.526,0.022,1.052,0.055,1.578,0.099c0.197,0.022,0.34,0.115,0.428,0.279
		c0.087,0.164,0.142,0.345,0.164,0.543c0.022,0.328,0.044,0.657,0.066,0.986c0.022,0.329,0.033,0.658,0.033,0.986
		c0.022,1.535,0.033,3.058,0.033,4.57c0,1.512,0,3.036,0,4.57c0.022,0.526,0.033,1.047,0.033,1.562c0,0.515,0,1.036,0,1.561
		c0,0.153,0,0.307,0,0.46c0,0.153-0.011,0.307-0.033,0.46c-0.044,0.285-0.115,0.482-0.214,0.592
		c-0.099,0.11-0.279,0.175-0.542,0.197c-0.395,0.022-0.784,0.033-1.167,0.033c-0.384,0-0.773,0-1.167,0
		c-0.351-0.022-0.603-0.115-0.756-0.28c-0.153-0.164-0.252-0.443-0.296-0.838c-0.022-0.109-0.039-0.213-0.05-0.312
		c-0.011-0.099-0.028-0.225-0.049-0.378c-0.176,0.11-0.329,0.203-0.46,0.28c-0.131,0.077-0.274,0.159-0.428,0.247
		c-0.636,0.394-1.282,0.696-1.939,0.904c-0.658,0.208-1.359,0.29-2.104,0.247c-0.68-0.044-1.321-0.208-1.924-0.493
		C216.12,195.096,215.578,194.718,215.096,194.246z M243.877,226.442c-0.092-0.108-0.165-0.231-0.267-0.327
		c-0.449-0.42-0.815-0.425-1.363-0.13c-0.205,0.11-0.444,0.154-0.666,0.232c-0.288,0.102-0.574,0.211-0.863,0.31
		c-0.191,0.065-0.384,0.143-0.582,0.167c-0.304,0.036-0.613,0.046-0.919,0.04c-0.409-0.009-0.763,0.089-0.93,0.492
		c-0.16,0.385,0.02,0.668,0.25,0.937c-1.473,0.422-2.956,0.817-4.459,1.16c-4.628,1.057-9.335,1.599-14.076,1.871
		c-1.284,0.074-2.567,0.111-3.851,0.131c4.004-3.928,8.648-6.912,14.082-8.765c3.767-1.285,7.592-2.217,11.575-2.391
		c4.137-0.181,8.103,0.565,11.932,2.004C250.535,223.814,247.245,225.23,243.877,226.442z M259.462,196.12
		c-0.143-0.011-0.279-0.005-0.411,0.016c-0.636,0.022-1.216-0.099-1.742-0.362c-0.526-0.263-1.009-0.613-1.447-1.052
		c-0.175-0.175-0.296-0.383-0.362-0.624c-0.11-0.395,0.011-0.69,0.362-0.888c0.307-0.197,0.613-0.197,0.921,0
		c0.087,0.044,0.165,0.104,0.23,0.181c0.066,0.077,0.142,0.148,0.23,0.213c0.35,0.307,0.723,0.526,1.118,0.658
		c0.394,0.131,0.822,0.143,1.282,0.033c0.504-0.087,0.789-0.416,0.855-0.986c0.022-0.263-0.011-0.521-0.099-0.773
		c-0.088-0.252-0.23-0.465-0.428-0.641c-0.219-0.241-0.45-0.465-0.69-0.674c-0.241-0.208-0.482-0.421-0.723-0.641
		c-0.482-0.395-0.965-0.778-1.446-1.151c-0.482-0.372-0.953-0.756-1.414-1.151c-0.57-0.504-1.036-1.063-1.397-1.677
		c-0.362-0.613-0.575-1.315-0.641-2.104c-0.044-0.636,0.027-1.233,0.213-1.792c0.186-0.559,0.531-1.057,1.036-1.496
		c0.613-0.57,1.277-0.981,1.989-1.233c0.712-0.252,1.485-0.268,2.318-0.049c0.635,0.175,1.156,0.46,1.561,0.855
		c0.406,0.394,0.728,0.888,0.97,1.48c0.066,0.219,0.087,0.439,0.066,0.657c-0.022,0.285-0.143,0.493-0.362,0.625
		c-0.219,0.131-0.45,0.131-0.69,0c-0.175-0.109-0.34-0.241-0.493-0.395c-0.153-0.153-0.285-0.317-0.395-0.493
		c-0.241-0.329-0.504-0.575-0.789-0.74c-0.285-0.165-0.636-0.225-1.052-0.181c-0.614,0.022-0.844,0.351-0.69,0.987
		c0.087,0.307,0.225,0.575,0.411,0.806c0.186,0.23,0.4,0.455,0.641,0.674c0.372,0.373,0.75,0.735,1.134,1.085
		c0.383,0.351,0.761,0.712,1.134,1.085c0.767,0.767,1.402,1.655,1.907,2.663c0.614,1.249,0.767,2.587,0.46,4.011
		c-0.197,0.986-0.702,1.786-1.512,2.4c-0.242,0.176-0.505,0.302-0.789,0.378c-0.285,0.077-0.57,0.16-0.855,0.247
		C259.741,196.115,259.604,196.132,259.462,196.12z M262.836,216.567c-0.245-0.273-0.513-0.53-0.806-0.744
		c-0.519-0.378-0.949-0.302-1.439,0.127c-0.04,0.035-0.081,0.079-0.121,0.121c1.455-3.867,3.543-7.407,6.439-10.509
		c3.211-3.44,6.997-6.007,11.608-7.18c-0.776,1.339-1.575,2.667-2.421,3.97C272.469,207.936,268.042,212.668,262.836,216.567z"/>
	<path class="st0" d="M223.644,160.733c0.471,0.768,1.003,1.212,1.595,1.332c0.592,0.121,1.106-0.028,1.545-0.444
		c0.701-0.658,1.221-1.517,1.561-2.581c0.34-1.063,0.477-2.164,0.411-3.304c-0.066-1.14-0.345-2.236-0.839-3.288
		c-0.493-1.052-1.233-1.896-2.219-2.532c-0.438-0.284-0.844-0.438-1.216-0.46c-0.373-0.022-0.702,0.061-0.986,0.247
		c-0.285,0.187-0.515,0.455-0.69,0.806c-0.176,0.351-0.285,0.734-0.329,1.151c-0.219,2.323-0.197,4.225,0.066,5.704
		C222.806,158.843,223.173,159.967,223.644,160.733z"/>
	<path class="st0" d="M251.095,124.213c0.066,0.044,0.109,0.071,0.131,0.082c0.022,0.011,0.175,0.016,0.46,0.016
		c0.285,0,0.784-0.011,1.496-0.033c0.712-0.022,1.792-0.054,3.238-0.098c0.109,0,0.202-0.017,0.279-0.05
		c0.077-0.033,0.169-0.071,0.279-0.115c0.087-1.249-0.137-2.383-0.674-3.403c-0.537-1.019-1.277-1.868-2.219-2.548
		c-0.329-0.241-0.614-0.328-0.855-0.263c-0.241,0.066-0.482,0.263-0.723,0.592c-0.57,0.811-0.953,1.732-1.151,2.762
		C251.161,122.186,251.073,123.205,251.095,124.213z"/>
	<path class="st0" d="M223.775,124.311c0.285,0,0.784-0.011,1.496-0.033c0.712-0.022,1.792-0.054,3.238-0.098
		c0.109,0,0.202-0.017,0.279-0.05c0.077-0.033,0.169-0.071,0.279-0.115c0.087-1.249-0.137-2.383-0.674-3.403
		c-0.537-1.019-1.277-1.868-2.219-2.548c-0.329-0.241-0.614-0.328-0.855-0.263c-0.241,0.066-0.482,0.263-0.723,0.592
		c-0.57,0.811-0.953,1.732-1.151,2.762c-0.197,1.031-0.285,2.049-0.263,3.057c0.066,0.044,0.109,0.071,0.131,0.082
		C223.336,124.306,223.49,124.311,223.775,124.311z"/>
	<path class="st0" d="M174.956,193.95c0.701-0.208,1.299-0.569,1.792-1.085c0.493-0.515,0.75-1.112,0.772-1.792
		c0.022-0.263,0.033-0.526,0.033-0.789c0-0.263,0-0.553,0-0.871c0-0.318-0.006-0.679-0.016-1.085
		c-0.012-0.405-0.017-0.882-0.017-1.43c0-0.613-0.087-1.221-0.263-1.824c-0.175-0.603-0.444-1.14-0.806-1.611
		c-0.362-0.471-0.806-0.86-1.331-1.167c-0.526-0.307-1.129-0.471-1.808-0.493c-0.657-0.022-1.26,0.137-1.808,0.477
		c-0.548,0.34-1.025,0.795-1.43,1.364c-0.406,0.57-0.723,1.233-0.953,1.989c-0.23,0.756-0.329,1.546-0.296,2.367
		c0.033,0.822,0.197,1.655,0.493,2.498c0.296,0.844,0.773,1.627,1.43,2.351c0.569,0.658,1.238,1.058,2.005,1.2
		C173.52,194.192,174.254,194.159,174.956,193.95z"/>
	<path class="st0" d="M219.764,193.868c0.679-0.131,1.31-0.372,1.891-0.724c0.58-0.35,1.123-0.767,1.627-1.249
		c0.109-0.109,0.175-0.225,0.197-0.345c0.022-0.12,0.033-0.257,0.033-0.411c-0.044-0.569-0.071-1.134-0.082-1.693
		c-0.011-0.559-0.028-1.09-0.05-1.595c0-0.701-0.006-1.353-0.016-1.956c-0.011-0.602-0.006-1.211,0.016-1.825
		c0-0.46-0.153-0.843-0.46-1.151c-0.548-0.569-1.167-0.958-1.858-1.167c-0.69-0.208-1.37-0.252-2.038-0.131
		c-0.669,0.121-1.299,0.406-1.89,0.855c-0.592,0.449-1.052,1.047-1.381,1.792c-0.373,0.855-0.624,1.737-0.756,2.646
		c-0.131,0.91-0.165,1.836-0.099,2.778c0.044,0.68,0.203,1.304,0.477,1.874c0.274,0.57,0.63,1.041,1.068,1.414
		c0.438,0.373,0.942,0.641,1.512,0.806C218.526,193.95,219.129,193.978,219.764,193.868z"/>
	<path class="st0" d="M208.768,187.704c0.077-0.033,0.169-0.071,0.279-0.115c0.087-1.249-0.137-2.383-0.674-3.403
		c-0.537-1.019-1.277-1.868-2.219-2.548c-0.329-0.241-0.614-0.328-0.855-0.263c-0.241,0.066-0.482,0.263-0.723,0.592
		c-0.57,0.811-0.953,1.732-1.151,2.762c-0.197,1.031-0.285,2.049-0.263,3.057c0.066,0.044,0.109,0.071,0.131,0.082
		c0.022,0.011,0.175,0.016,0.46,0.016c0.285,0,0.784-0.011,1.496-0.033c0.712-0.022,1.792-0.054,3.238-0.098
		C208.598,187.754,208.691,187.737,208.768,187.704z"/>
</g>
</svg>
