<svg xmlns="http://www.w3.org/2000/svg" width="1920.5" height="253.026" viewBox="0 0 1920.5 253.026">
  <defs>
    <style>
      .cls-1 {
        fill: #3490c5;
        stroke: #707070;
      }

      .cls-2 {
        fill: #fff;
        stroke: #3490c5;
      }

      .cls-3 {
        fill: #f7f152;
        opacity: 0.89;
      }

      .cls-4 {
        fill: #322e2e;
        font-size: 89px;
        font-family: Consolas-Bold, Consolas;
        font-weight: 700;
        letter-spacing: 0.1em;
      }

      .cls-5 {
        fill: #e4e31f;
        opacity: 0.91;
      }

      .cls-6 {
        stroke: none;
      }

      .cls-7 {
        fill: none;
      }
    </style>
  </defs>
  <g id="구성_요소_4_1" data-name="구성 요소 4 – 1" transform="translate(0.5 0.526)">
    <g id="사각형_1" data-name="사각형 1" class="cls-1">
      <rect class="cls-6" width="1920" height="252"/>
      <rect class="cls-7" x="0.5" y="0.5" width="1919" height="251"/>
    </g>
    <path id="패스_2" data-name="패스 2" class="cls-2" d="M1225.151,144s-78.544-24.964-132.458-35.087c-46.421-8.716-144.651,3.26-146.51-58.219C942.15-82.667,441-108,441-108V144Z" transform="translate(-441 108)"/>
    <ellipse id="타원_1" data-name="타원 1" class="cls-3" cx="53" cy="52" rx="53" ry="52" transform="translate(881 39)"/>
    <g id="그룹_1" data-name="그룹 1" transform="translate(-50 -263)">
      <text id="Hamp" class="cls-4" transform="translate(126 419)"><tspan x="0" y="0">Hamp</tspan></text>
    </g>
    <path id="다각형_1" data-name="다각형 1" class="cls-5" d="M16.5,0,33,30H0Z" transform="translate(1016.66 134.452) rotate(132)"/>
    <path id="다각형_2" data-name="다각형 2" class="cls-5" d="M16.5,0,33,31H0Z" transform="translate(946.983 178.838) rotate(-177)"/>
    <path id="다각형_3" data-name="다각형 3" class="cls-5" d="M16.5,0,33,32H0Z" transform="translate(873.231 162.574) rotate(-131)"/>
    <path id="다각형_4" data-name="다각형 4" class="cls-5" d="M16.5,0,33,31H0Z" transform="translate(1017.301 54.649) rotate(77)"/>
    <path id="다각형_5" data-name="다각형 5" class="cls-5" d="M16.5,0,33,27H0Z" transform="matrix(0.342, -0.94, 0.94, 0.342, 846.163, 81.875)"/>
    <path id="다각형_6" data-name="다각형 6" class="cls-5" d="M16.5,0,33,27H0Z" transform="translate(891.37 17.944) rotate(-20)"/>
    <path id="다각형_7" data-name="다각형 7" class="cls-5" d="M16.5,0,33,27H0Z" transform="matrix(0.819, 0.574, -0.574, 0.819, 966.719, 9.464)"/>
  </g>
</svg>
